<?xml version="1.0" encoding="UTF-8"?>
<svg xmlns="http://www.w3.org/2000/svg" xmlns:xlink="http://www.w3.org/1999/xlink" viewBox="0 0 384 384" width="384px" height="384px">
<g id="surface163766921">
<path style=" stroke:none;fill-rule:nonzero;fill:rgb(45.490196%,45.882353%,53.333336%);fill-opacity:1;" d="M 251.03125 48 C 213.84375 48.507812 183.972656 78.8125 184 116 L 184 268 C 184 305.554688 214.445312 336 252 336 C 289.554688 336 320 305.554688 320 268 L 320 116 C 320.035156 97.960938 312.851562 80.660156 300.046875 67.953125 C 287.074219 54.953125 269.394531 47.753906 251.03125 48 Z M 252 64 C 280.699219 64.050781 303.949219 87.300781 304 116 L 304 184 L 200 184 L 200 116 C 200.03125 87.292969 223.292969 64.03125 252 64 Z M 152 160 C 117.351562 160.011719 85.933594 180.351562 71.742188 211.964844 C 57.554688 243.574219 63.234375 280.570312 86.257812 306.464844 C 109.277344 332.363281 145.351562 342.339844 178.40625 331.953125 C 182.621094 330.625 184.960938 326.128906 183.632812 321.914062 C 182.304688 317.699219 177.808594 315.359375 173.59375 316.6875 C 146.542969 325.199219 117.011719 317.042969 98.167969 295.847656 C 79.324219 274.652344 74.675781 244.371094 86.296875 218.5 C 97.917969 192.632812 123.640625 175.992188 152 176 C 154.398438 175.996094 156.800781 176.117188 159.1875 176.359375 C 163.585938 176.808594 167.511719 173.609375 167.960938 169.210938 C 168.410156 164.8125 165.210938 160.886719 160.8125 160.4375 C 157.914062 160.148438 154.972656 160.003906 152 160 Z M 200 200 L 304 200 L 304 268 C 303.96875 296.707031 280.707031 319.96875 252 320 C 223.3125 319.921875 200.078125 296.6875 200 268 Z M 112 240 C 107.582031 240 104 243.582031 104 248 C 104 252.417969 107.582031 256 112 256 L 168 256 C 172.417969 256 176 252.417969 176 248 C 176 243.582031 172.417969 240 168 240 Z M 112 240 "/>
</g>
</svg>
