<svg xmlns="http://www.w3.org/2000/svg"  viewBox="0 0 520 520" width="512px" height="512px"><circle cx="51.155" cy="58.825" r="15" fill="#505967"/><circle cx="66.155" cy="443.825" r="20" fill="#505967"/><circle cx="441.155" cy="398.825" r="25" fill="#505967"/><path fill="#cc2340" d="M281.155,253.825h119.09c-22.609,48.04-83.399,78.18-144.13,138.91 c-56.42-56.41-112.83-86.43-138.67-128.91h93.71l20-50l30,110L281.155,253.825z"/><path fill="#e42e44" d="M409.465,211.545c0,15.9-3.3,29.7-9.22,42.28h-119.09l-20,70l-30-110l-20,50h-93.71 c-9.261-15.23-14.601-32.06-14.601-52.28c0-42.3,34.33-76.63,76.63-76.63c38.32,0,57.48,19.16,76.641,57.47 c19.15-38.31,38.31-57.47,76.63-57.47C375.136,134.915,409.465,169.245,409.465,211.545z"/><circle cx="476.155" cy="113.825" r="10" fill="#65b2fe"/><circle cx="466.155" cy="323.825" r="10" fill="#65b2fe"/><circle cx="446.155" cy="283.825" r="10" fill="#65b2fe"/><circle cx="436.155" cy="63.825" r="10" fill="#65b2fe"/><circle cx="416.155" cy="463.825" r="10" fill="#65b2fe"/><circle cx="346.155" cy="463.825" r="10" fill="#65b2fe"/><circle cx="176.155" cy="403.825" r="10" fill="#65b2fe"/><circle cx="146.155" cy="473.825" r="10" fill="#65b2fe"/><circle cx="116.155" cy="43.825" r="10" fill="#65b2fe"/><circle cx="106.155" cy="393.825" r="10" fill="#65b2fe"/><circle cx="46.155" cy="343.825" r="10" fill="#65b2fe"/><path fill="#cc2340" d="M256.115,486.175c-2.56,0-5.119-0.977-7.071-2.929l-41.72-41.72 c-3.905-3.905-3.905-10.237,0-14.143c3.905-3.904,10.237-3.904,14.143,0l34.648,34.648l34.648-34.648 c21.549-21.558,43.211-38.999,64.159-55.865l0.234-0.188c25.419-20.47,49.428-39.805,67.972-62.811 c3.467-4.301,9.763-4.977,14.062-1.511c4.3,3.467,4.977,9.762,1.511,14.062c-19.896,24.683-44.719,44.673-71,65.837l-0.235,0.19 c-20.536,16.534-41.771,33.632-62.559,54.428l-41.721,41.722C261.233,485.198,258.675,486.175,256.115,486.175z"/><path fill="#cc2340" d="M150.929,389.215c-2.202,0-4.417-0.723-6.266-2.211c-26.299-21.177-51.139-41.18-71.075-65.925 c-26.743-33.204-39.743-69.033-39.743-109.534c0-80.301,65.329-145.63,145.63-145.63c29.043,0,54.788,7.011,76.64,20.854 c21.842-13.844,47.583-20.854,76.631-20.854c80.351,0,145.72,65.33,145.72,145.63c0,5.523-4.478,10-10,10 c-5.522,0-10-4.477-10-10c0-69.273-56.397-125.63-125.72-125.63c-27.802,0-50.969,6.883-70.824,21.042 c-3.473,2.478-8.137,2.478-11.61,0.002c-19.867-14.16-43.037-21.044-70.836-21.044c-69.272,0-125.63,56.358-125.63,125.63 c0,35.755,11.553,67.48,35.318,96.988c18.584,23.065,42.608,42.411,68.044,62.893c4.301,3.464,4.98,9.76,1.517,14.06 C156.748,387.94,153.851,389.215,150.929,389.215z"/><path fill="#d7deed" d="M261.156,333.825c-0.021,0-0.041,0-0.062,0c-4.486-0.027-8.406-3.04-9.587-7.369l-22.149-81.213 l-8.919,22.296c-1.519,3.797-5.195,6.286-9.284,6.286h-125c-5.523,0-10-4.478-10-10s4.477-10,10-10h118.229l17.485-43.714 c1.597-3.991,5.571-6.507,9.855-6.27c4.292,0.246,7.946,3.206,9.077,7.353l20.576,75.447l10.161-35.563 c1.227-4.293,5.15-7.253,9.615-7.253h145c5.522,0,10,4.477,10,10c0,5.522-4.478,10-10,10H288.698l-17.928,62.747 C269.543,330.867,265.617,333.825,261.156,333.825z"/></svg>