<?xml version="1.0" encoding="UTF-8"?>
<svg xmlns="http://www.w3.org/2000/svg" xmlns:xlink="http://www.w3.org/1999/xlink" viewBox="0 0 256 256" width="256px" height="256px">
<defs>
<linearGradient id="linear0" gradientUnits="userSpaceOnUse" x1="86" y1="2945.5" x2="86" y2="3074.5" gradientTransform="matrix(5.333328,0,0,5.333328,0,0)">
<stop offset="0" style="stop-color:rgb(100%,72.156864%,50.980395%);stop-opacity:1;"/>
<stop offset="1" style="stop-color:rgb(89.803922%,43.529412%,7.843138%);stop-opacity:1;"/>
</linearGradient>
<radialGradient id="radial0" gradientUnits="userSpaceOnUse" cx="86" cy="3010" fx="86" fy="3010" r="64.5" gradientTransform="matrix(5.333328,0,0,5.333328,0,0)">
<stop offset="0" style="stop-color:rgb(100%,69.411767%,45.882353%);stop-opacity:0;"/>
<stop offset="0.392" style="stop-color:rgb(99.607843%,69.01961%,45.490196%);stop-opacity:0.009;"/>
<stop offset="0.533" style="stop-color:rgb(99.215686%,67.843139%,43.921569%);stop-opacity:0.044;"/>
<stop offset="0.633" style="stop-color:rgb(97.647059%,65.882355%,41.568628%);stop-opacity:0.103;"/>
<stop offset="0.715" style="stop-color:rgb(95.686275%,63.137257%,37.64706%);stop-opacity:0.188;"/>
<stop offset="0.784" style="stop-color:rgb(93.333334%,59.215689%,32.941177%);stop-opacity:0.299;"/>
<stop offset="0.846" style="stop-color:rgb(90.588236%,54.509807%,27.058825%);stop-opacity:0.435;"/>
<stop offset="0.902" style="stop-color:rgb(86.666667%,49.019608%,20%);stop-opacity:0.598;"/>
<stop offset="0.952" style="stop-color:rgb(92.54902%,94.117647%,94.509804%);stop-opacity:0.781;"/>
<stop offset="0.997" style="stop-color:rgb(78.431374%,35.686275%,2.745098%);stop-opacity:0.987;"/>
<stop offset="1" style="stop-color:rgb(78.039217%,35.294119%,2.352941%);stop-opacity:1;"/>
</radialGradient>
</defs>
<g id="surface163766196">
<path style=" stroke:none;fill-rule:nonzero;fill:url(#linear0);" d="M 224 128 C 224 181.019531 181.019531 224 128 224 C 74.980469 224 32 181.019531 32 128 C 32 74.980469 74.980469 32 128 32 C 181.019531 32 224 74.980469 224 128 Z M 224 128 "/>
<path style=" stroke:none;fill-rule:nonzero;fill:url(#radial0);" d="M 224 128 C 224 181.019531 181.019531 224 128 224 C 74.980469 224 32 181.019531 32 128 C 32 74.980469 74.980469 32 128 32 C 181.019531 32 224 74.980469 224 128 Z M 224 128 "/>
</g>
</svg>
