<?xml version="1.0" encoding="UTF-8"?>
<svg xmlns="http://www.w3.org/2000/svg" xmlns:xlink="http://www.w3.org/1999/xlink" viewBox="0 0 384 384" width="384px" height="384px">
<g id="surface163726483">
<path style=" stroke:none;fill-rule:nonzero;fill:rgb(96.470588%,61.56863%,28.627452%);fill-opacity:1;" d="M 336 72 C 336 37.945312 309.71875 0 272 0 C 254.578125 0 242.203125 2.109375 230.234375 4.140625 C 218.578125 6.125 207.578125 8 192 8 C 176.421875 8 165.421875 6.125 153.765625 4.140625 C 141.796875 2.109375 129.421875 0 112 0 C 74.28125 0 48 37.945312 48 72 C 48 95.003906 65.90625 146.175781 82.328125 179.316406 C 75.824219 218.246094 85.578125 350.0625 107.59375 377.25 C 112.109375 382.828125 116.828125 384 120 384 C 147.359375 384 149.71875 350.1875 152.21875 314.382812 C 155.578125 266.148438 160.390625 232 192 232 C 223.609375 232 228.421875 266.148438 231.78125 314.382812 C 234.28125 350.1875 236.640625 384 264 384 C 267.171875 384 271.890625 382.828125 276.40625 377.25 C 298.421875 350.0625 308.175781 218.25 301.671875 179.316406 C 318.09375 146.175781 336 95 336 72 Z M 336 72 "/>
</g>
</svg>
